<?xml version="1.0" encoding="utf-8"?>
<!-- Generator: Adobe Illustrator 22.0.1, SVG Export Plug-In . SVG Version: 6.00 Build 0)  -->
<svg version="1.1" id="레이어_1" xmlns="http://www.w3.org/2000/svg" xmlns:xlink="http://www.w3.org/1999/xlink" x="0px"
	 y="0px" viewBox="0 0 400 400" style="enable-background:new 0 0 400 400;" xml:space="preserve">
<style type="text/css">
	.st0{fill:#D9D9D9;}
	.st1{fill:#E1361F;}
	.st2{fill:#727171;}
</style>
<path class="st0" d="M266.8,278.2H146.5c-2.5,0-4.5-2-4.5-4.5s2-4.5,4.5-4.5h120.3c2.5,0,4.5,2,4.5,4.5S269.3,278.2,266.8,278.2z"/>
<path class="st1" d="M266.8,299.2H146.5c-2.5,0-4.5-2-4.5-4.5s2-4.5,4.5-4.5h120.3c2.5,0,4.5,2,4.5,4.5S269.3,299.2,266.8,299.2z"/>
<path class="st0" d="M285,164.9H179.3v-62.1c0-20.1,16.4-36.5,36.5-36.5s36.5,16.4,36.5,36.5v12.8c0,4.4,3.6,8,8,8c4.4,0,8-3.6,8-8
	v-12.8c0-29-23.6-52.5-52.5-52.5s-52.5,23.6-52.5,52.5v62.1h-35c-4.4,0-8,3.6-8,8v168.9c0,4.4,3.6,8,8,8h24.1l11.7-16h-27.8V180.9
	H277v152.9h-86.8l-11.7,16H285c4.4,0,8-3.6,8-8V172.9C293,168.4,289.4,164.9,285,164.9z"/>
</svg>
