<?xml version="1.0" encoding="utf-8"?>
<!-- Generator: Adobe Illustrator 22.0.1, SVG Export Plug-In . SVG Version: 6.00 Build 0)  -->
<svg version="1.1" id="레이어_1" xmlns="http://www.w3.org/2000/svg" xmlns:xlink="http://www.w3.org/1999/xlink" x="0px"
	 y="0px" viewBox="0 0 400 400" style="enable-background:new 0 0 400 400;" xml:space="preserve">
<style type="text/css">
	.st0{fill:#D9D9D9;}
	.st1{fill:#E1361F;}
	.st2{fill:#727171;}
</style>
<path class="st0" d="M348.3,263c-1.6,0-3.2-0.5-4.6-1.4L280,217.5c-2.1-1.4-3.3-3.7-3.4-6.3c-0.1-2.5,1-4.9,2.9-6.5l63.8-52.3
	c2.4-2,5.7-2.4,8.5-1c2.8,1.3,4.6,4.1,4.6,7.2V255c0,3-1.7,5.7-4.3,7.1C350.8,262.7,349.6,263,348.3,263z M297.8,210.3l42.5,29.4
	v-64.2L297.8,210.3z"/>
<path class="st0" d="M262.5,133.7H59.8c-4.4,0-8,3.6-8,8v138.4c0,4.4,3.6,8,8,8h26.3l11.7-16h-30V149.7h186.7v122.4H123.8l-11.7,16
	h150.4c4.4,0,8-3.6,8-8V141.7C270.5,137.3,266.9,133.7,262.5,133.7z"/>
<path class="st1" d="M229.4,178.5H88.1c-2.5,0-4.5-2-4.5-4.5s2-4.5,4.5-4.5h141.2c2.5,0,4.5,2,4.5,4.5S231.8,178.5,229.4,178.5z"/>
</svg>
