<?xml version="1.0" encoding="utf-8"?>
<!-- Generator: Adobe Illustrator 22.0.1, SVG Export Plug-In . SVG Version: 6.00 Build 0)  -->
<svg version="1.1" id="레이어_1" xmlns="http://www.w3.org/2000/svg" xmlns:xlink="http://www.w3.org/1999/xlink" x="0px"
	 y="0px" viewBox="0 0 400 400" style="enable-background:new 0 0 400 400;" xml:space="preserve">
<style type="text/css">
	.st0{fill:#D9D9D9;}
	.st1{fill:#E1361F;}
	.st2{fill:#727171;}
</style>
<path class="st0" d="M351.3,170.5c-0.6-3.4-3.6-5.8-7-5.8h-30.5c-2.3-7.9-5.5-15.6-9.5-22.9l21.6-21.6c2.4-2.4,2.8-6.2,0.8-9.1
	c-10.7-15.5-24-28.8-39.5-39.5c-2.8-1.9-6.6-1.6-9.1,0.8l-21.6,21.6c-7.3-4-14.9-7.1-22.9-9.5V54.1c0-3.4-2.4-6.4-5.8-7
	c-18.3-3.4-37.6-3.4-55.8,0c-3.4,0.6-5.8,3.6-5.8,7v30.5c-7.9,2.3-15.6,5.5-22.9,9.5l-21.6-21.6c-2.4-2.4-6.2-2.8-9.1-0.8
	c-15.5,10.7-28.8,24-39.5,39.5c-1.9,2.8-1.6,6.6,0.8,9.1l21.6,21.6c-4,7.3-7.1,14.9-9.5,22.9H55.7c-3.4,0-6.4,2.4-7,5.8
	c-1.7,9.1-2.5,18.5-2.5,27.9c0,9.4,0.9,18.8,2.5,27.9c0.6,3.4,3.6,5.8,7,5.8h30.5c2.3,7.9,5.5,15.6,9.5,22.9l-21.6,21.6
	c-2.4,2.4-2.8,6.2-0.8,9.1c10.7,15.5,24,28.8,39.5,39.5c2.8,1.9,6.6,1.6,9.1-0.8l21.6-21.6c1,0.5,2,1.1,3,1.6l5.4-13.2
	c-2-1-3.9-2.1-5.8-3.3c-2.8-1.7-6.4-1.3-8.7,1L116,310c-10.5-7.9-19.7-17.1-27.6-27.6l21.2-21.2c2.3-2.3,2.7-5.9,1-8.7
	c-5.5-9.1-9.6-18.9-12.1-29.1c-0.8-3.2-3.6-5.4-6.9-5.4H61.7c-0.9-6.4-1.4-13-1.4-19.5s0.5-13.1,1.4-19.5h29.9
	c3.3,0,6.1-2.2,6.9-5.4c2.5-10.3,6.6-20.1,12.1-29.1c1.7-2.8,1.3-6.4-1-8.7l-21.2-21.2c7.9-10.5,17.1-19.7,27.6-27.6l21.2,21.2
	c2.3,2.3,5.9,2.7,8.7,1c9.1-5.5,18.9-9.6,29.1-12.1c3.2-0.8,5.4-3.6,5.4-6.9V60.2c12.9-1.8,26.2-1.8,39.1,0v29.9
	c0,3.3,2.2,6.1,5.4,6.9c10.3,2.5,20.1,6.6,29.1,12.1c2.8,1.7,6.4,1.3,8.7-1L284,86.9c10.5,7.9,19.7,17.1,27.6,27.6l-21.2,21.2
	c-2.3,2.3-2.7,5.9-1,8.7c5.5,9.1,9.6,18.9,12.1,29.1c0.8,3.2,3.6,5.4,6.9,5.4h29.9c0.9,6.4,1.4,13,1.4,19.5c0,6.5-0.5,13.1-1.4,19.5
	h-29.9c-3.3,0-6.1,2.2-6.9,5.4c-2.5,10.3-6.6,20.1-12.1,29.1c-1.7,2.8-1.3,6.4,1,8.7l21.2,21.2c-7.9,10.5-17.1,19.7-27.6,27.6
	l-21.2-21.2c-2.3-2.3-5.9-2.7-8.7-1c-9.1,5.5-18.9,9.6-29.1,12.1c-3.2,0.8-5.4,3.6-5.4,6.9v29.9c-12.9,1.8-26.2,1.8-39.1,0v-29.9
	c0-3.3-2.2-6.1-5.4-6.9c-2.1-0.5-4.1-1.1-6.1-1.7l-5.4,13.2c0.9,0.3,1.8,0.6,2.7,0.8v30.5c0,3.4,2.4,6.4,5.8,7
	c9.1,1.7,18.5,2.5,27.9,2.5c9.4,0,18.8-0.9,27.9-2.5c3.4-0.6,5.8-3.6,5.8-7v-30.5c7.9-2.3,15.6-5.5,22.9-9.5l21.6,21.6
	c2.4,2.4,6.2,2.8,9.1,0.8c15.5-10.7,28.8-24,39.5-39.5c1.9-2.8,1.6-6.6-0.8-9.1L304.3,255c4-7.3,7.1-14.9,9.5-22.9h30.5
	c3.4,0,6.4-2.4,7-5.8c1.7-9.1,2.5-18.5,2.5-27.9C353.8,189.1,353,179.7,351.3,170.5z"/>
<path class="st1" d="M281.5,198.4c0-44.7-36.4-81.1-81.1-81.1c-44.7,0-81.1,36.4-81.1,81.1c0,30.3,16.7,56.7,41.3,70.6l3-7.5
	c-21.7-12.7-36.3-36.2-36.3-63.1c0-40.3,32.8-73.1,73.1-73.1s73.1,32.8,73.1,73.1s-32.8,73.1-73.1,73.1c-6.8,0-13.4-1-19.6-2.7
	l-3,7.5c7.2,2.1,14.8,3.2,22.6,3.2C245.2,279.5,281.5,243.2,281.5,198.4z"/>
</svg>
