<?xml version="1.0" encoding="utf-8"?>
<!-- Generator: Adobe Illustrator 22.0.1, SVG Export Plug-In . SVG Version: 6.00 Build 0)  -->
<svg version="1.1" id="레이어_1" xmlns="http://www.w3.org/2000/svg" xmlns:xlink="http://www.w3.org/1999/xlink" x="0px"
	 y="0px" viewBox="0 0 400 400" style="enable-background:new 0 0 400 400;" xml:space="preserve">
<style type="text/css">
	.st0{fill:#D9D9D9;}
	.st1{fill:#E1361F;}
	.st2{fill:#727171;}
</style>
<path class="st1" d="M247.8,250.1c-0.1,0-0.2,0-0.2,0L38.7,238.6c-2.5-0.1-4.4-2.3-4.2-4.7c0.1-2.5,2.2-4.4,4.7-4.2l205.4,11.2
	c2.5-7.4,9.3-25.5,21.2-44.2c20.4-32.1,46.2-50.4,74.5-52.8c2.5-0.2,4.7,1.6,4.9,4.1c0.2,2.5-1.6,4.7-4.1,4.9
	c-62,5.3-88.7,93.2-88.9,94.1C251.5,248.7,249.8,250.1,247.8,250.1z"/>
<path class="st0" d="M259.4,280.5c-0.1,0-0.2,0-0.2,0L34.1,268.7c-2.5-0.1-4.4-2.2-4.3-4.7c0.1-2.5,2.3-4.4,4.7-4.3l221.3,11.5
	c1.9-7.5,6.8-24.9,16.4-43.6c16.6-32.5,39.3-52.7,65.5-58.3c2.4-0.5,4.8,1,5.3,3.5c0.5,2.4-1,4.8-3.5,5.3
	c-57.2,12.2-75.6,97.8-75.8,98.6C263.4,279,261.5,280.5,259.4,280.5z"/>
<path class="st0" d="M357.8,113.2c-53.8-13.3-123-10.2-127.8-10C155,104,107.5,131,81,153.7c-29.1,24.8-40.1,49.4-40.6,50.4
	c-1.1,2.4-0.9,5.2,0.5,7.4s3.8,3.7,6.4,3.8l23.3,1.2l11.3-15.4L61,200c5.5-8.6,15.2-21.3,30.3-34.2c24.6-20.9,68.6-46,139-46.6
	c0.1,0,0.2,0,0.3,0c0.5,0,39.9-1.9,81.6,2.5c-2.4,0.9-4.8,1.9-7.3,3c-24.1,10.9-56.2,34.3-74.5,83.9L107,202.4l-11.3,15.4l140,7.2
	c0.1,0,0.3,0,0.4,0c3.4,0,6.5-2.2,7.6-5.5c12.8-38.4,35.4-65.2,67.3-79.9c23.9-11,44.5-10.7,44.7-10.7c0.1,0,0.2,0,0.2,0
	c4,0,7.4-2.9,7.9-6.9C364.4,118,361.8,114.2,357.8,113.2z"/>
</svg>
