<?xml version="1.0" encoding="utf-8"?>
<!-- Generator: Adobe Illustrator 22.0.1, SVG Export Plug-In . SVG Version: 6.00 Build 0)  -->
<svg version="1.1" id="레이어_1" xmlns="http://www.w3.org/2000/svg" xmlns:xlink="http://www.w3.org/1999/xlink" x="0px"
	 y="0px" viewBox="0 0 400 400" style="enable-background:new 0 0 400 400;" xml:space="preserve">
<style type="text/css">
	.st0{fill:#D9D9D9;}
	.st1{fill:#E1361F;}
	.st2{fill:#727171;}
</style>
<path class="st0" d="M96.1,321.1c-2.5,0-4.5-2-4.5-4.5V82.4c0-2.5,2-4.5,4.5-4.5s4.5,2,4.5,4.5v234.2
	C100.6,319.1,98.5,321.1,96.1,321.1z"/>
<path class="st0" d="M299.1,321.1c-2.5,0-4.5-2-4.5-4.5V82.4c0-2.5,2-4.5,4.5-4.5s4.5,2,4.5,4.5v234.2
	C303.6,319.1,301.6,321.1,299.1,321.1z"/>
<g>
	<path class="st1" d="M197.6,153.2c-2.5,0-4.5-2-4.5-4.5V31.2c0-2.5,2-4.5,4.5-4.5s4.5,2,4.5,4.5v117.5
		C202.1,151.2,200.1,153.2,197.6,153.2z"/>
	<path class="st1" d="M197.6,375.5c-2.5,0-4.5-2-4.5-4.5V253.5c0-2.5,2-4.5,4.5-4.5s4.5,2,4.5,4.5V371
		C202.1,373.5,200.1,375.5,197.6,375.5z"/>
	<path class="st1" d="M197.6,215.2c-2.5,0-4.5-2-4.5-4.5V188c0-2.5,2-4.5,4.5-4.5s4.5,2,4.5,4.5v22.7
		C202.1,213.2,200.1,215.2,197.6,215.2z"/>
</g>
<path class="st0" d="M350.1,105.7H49.4c-4.4,0-8,3.6-8,8v52.7l16-22.1v-22.7h284.7v158.9H57.4V180.1l-16,22.1v86.4c0,4.4,3.6,8,8,8
	h300.7c4.4,0,8-3.6,8-8V113.7C358.1,109.2,354.5,105.7,350.1,105.7z"/>
</svg>
