<?xml version="1.0" encoding="utf-8"?>
<!-- Generator: Adobe Illustrator 22.0.1, SVG Export Plug-In . SVG Version: 6.00 Build 0)  -->
<svg version="1.1" id="레이어_1" xmlns="http://www.w3.org/2000/svg" xmlns:xlink="http://www.w3.org/1999/xlink" x="0px"
	 y="0px" viewBox="0 0 400 400" style="enable-background:new 0 0 400 400;" xml:space="preserve">
<style type="text/css">
	.st0{fill:#D9D9D9;}
	.st1{fill:#E1361F;}
	.st2{fill:#727171;}
</style>
<path class="st1" d="M229.4,283.2h-47.9c-2.5,0-4.5-2-4.5-4.5s2-4.5,4.5-4.5h43.4V236h-21.1c-2.5,0-4.5-2-4.5-4.5s2-4.5,4.5-4.5
	h25.6c2.5,0,4.5,2,4.5,4.5v47.3C233.9,281.2,231.9,283.2,229.4,283.2z"/>
<path class="st1" d="M73.5,244.2c-2.5,0-4.5-2-4.5-4.5v-89.3c0-2.5,2-4.5,4.5-4.5s4.5,2,4.5,4.5v89.3C78,242.2,76,244.2,73.5,244.2z
	"/>
<path class="st0" d="M364.2,97.9h-51.3c-4.4,0-8,3.6-8,8v12.3h-15c-4.4,0-8,3.6-8,8v20.4h-129l-11.7,16h140.7v32.6H91.6
	c-4.4,0-8,3.6-8,8v44.7H45.5V140.9h38.1v13.6c0,4.4,3.6,8,8,8h23.6l11.7-16H99.6v-13.6c0-4.4-3.6-8-8-8H37.5c-4.4,0-8,3.6-8,8v122.9
	c0,4.4,3.6,8,8,8h54.1c4.4,0,8-3.6,8-8v-16.3h83.9c4.4,0,8-3.6,8-8s-3.6-8-8-8H99.6v-12.4h182.4v20.4c0,4.4,3.6,8,8,8h15v6.9
	c0,4.4,3.6,8,8,8h51.3c4.4,0,8-3.6,8-8V105.9C372.2,101.5,368.6,97.9,364.2,97.9z M304.9,223.5h-7v-20.4v-48.6v-20.4h7V223.5z
	 M356.2,238.3h-35.3v-6.9V126.2v-12.3h35.3V238.3z"/>
</svg>
