<?xml version="1.0" encoding="utf-8"?>
<!-- Generator: Adobe Illustrator 22.0.1, SVG Export Plug-In . SVG Version: 6.00 Build 0)  -->
<svg version="1.1" id="레이어_1" xmlns="http://www.w3.org/2000/svg" xmlns:xlink="http://www.w3.org/1999/xlink" x="0px"
	 y="0px" viewBox="0 0 400 400" style="enable-background:new 0 0 400 400;" xml:space="preserve">
<style type="text/css">
	.st0{fill:#D9D9D9;}
	.st1{fill:#E1361F;}
	.st2{fill:#727171;}
</style>
<path class="st1" d="M117.6,112.6h-17.1c-2.2,0-4-1.8-4-4s1.8-4,4-4h17.1c2.2,0,4,1.8,4,4S119.8,112.6,117.6,112.6z"/>
<path class="st1" d="M117.6,141.4h-17.1c-2.2,0-4-1.8-4-4c0-2.2,1.8-4,4-4h17.1c2.2,0,4,1.8,4,4
	C121.5,139.6,119.8,141.4,117.6,141.4z"/>
<path class="st1" d="M117.6,170.2h-17.1c-2.2,0-4-1.8-4-4c0-2.2,1.8-4,4-4h17.1c2.2,0,4,1.8,4,4
	C121.5,168.4,119.8,170.2,117.6,170.2z"/>
<path class="st1" d="M146.6,112.6h-17.1c-2.2,0-4-1.8-4-4s1.8-4,4-4h17.1c2.2,0,4,1.8,4,4S148.8,112.6,146.6,112.6z"/>
<path class="st1" d="M146.6,141.4h-17.1c-2.2,0-4-1.8-4-4c0-2.2,1.8-4,4-4h17.1c2.2,0,4,1.8,4,4
	C150.6,139.6,148.8,141.4,146.6,141.4z"/>
<path class="st1" d="M146.6,170.2h-17.1c-2.2,0-4-1.8-4-4c0-2.2,1.8-4,4-4h17.1c2.2,0,4,1.8,4,4
	C150.6,168.4,148.8,170.2,146.6,170.2z"/>
<circle class="st1" cx="185.3" cy="108.6" r="4"/>
<circle class="st1" cx="185.3" cy="137.4" r="4"/>
<circle class="st1" cx="185.3" cy="166.2" r="4"/>
<circle class="st1" cx="286.5" cy="128.7" r="4"/>
<circle class="st1" cx="286.5" cy="157.4" r="4"/>
<circle class="st1" cx="286.5" cy="186.2" r="4"/>
<path class="st1" d="M229.9,132.7h-12.1c-2.2,0-4-1.8-4-4c0-2.2,1.8-4,4-4h12.1c2.2,0,4,1.8,4,4
	C233.9,130.9,232.1,132.7,229.9,132.7z"/>
<path class="st1" d="M229.9,161.4h-12.1c-2.2,0-4-1.8-4-4c0-2.2,1.8-4,4-4h12.1c2.2,0,4,1.8,4,4
	C233.9,159.6,232.1,161.4,229.9,161.4z"/>
<path class="st1" d="M229.9,190.2h-12.1c-2.2,0-4-1.8-4-4c0-2.2,1.8-4,4-4h12.1c2.2,0,4,1.8,4,4
	C233.9,188.4,232.1,190.2,229.9,190.2z"/>
<path class="st1" d="M259,132.7h-17.1c-2.2,0-4-1.8-4-4c0-2.2,1.8-4,4-4H259c2.2,0,4,1.8,4,4C263,130.9,261.2,132.7,259,132.7z"/>
<path class="st1" d="M259,161.4h-17.1c-2.2,0-4-1.8-4-4c0-2.2,1.8-4,4-4H259c2.2,0,4,1.8,4,4C263,159.6,261.2,161.4,259,161.4z"/>
<path class="st1" d="M259,190.2h-17.1c-2.2,0-4-1.8-4-4c0-2.2,1.8-4,4-4H259c2.2,0,4,1.8,4,4C263,188.4,261.2,190.2,259,190.2z"/>
<path class="st0" d="M361.5,270.3c-0.2-0.8-0.9-1.5-1.8-1.5H345c-1.1-4.1-2.8-8.1-4.9-11.8l10.4-10.4c0.6-0.6,0.7-1.6,0.2-2.3
	c-4.7-6.8-10.5-12.6-17.2-17.2c-0.7-0.5-1.7-0.4-2.3,0.2l-10.4,10.4c-3.7-2.1-7.7-3.8-11.8-4.9v-14.7c0-0.9-0.6-1.6-1.5-1.8
	c-8-1.5-16.4-1.5-24.4,0c-0.8,0.2-1.5,0.9-1.5,1.8v14.7c-4.1,1.1-8.1,2.8-11.8,4.9l-10.4-10.4c-0.6-0.6-1.6-0.7-2.3-0.2
	c-6.8,4.7-12.6,10.5-17.2,17.2c-0.5,0.7-0.4,1.7,0.2,2.3l10.4,10.4c-2.1,3.7-3.8,7.7-4.9,11.8H231c-0.9,0-1.6,0.6-1.8,1.5
	c-0.7,4-1.1,8.1-1.1,12.2s0.4,8.2,1.1,12.2c0.2,0.8,0.9,1.5,1.8,1.5h14.7c1.1,4.1,2.8,8.1,4.9,11.8l-10.4,10.4
	c-0.6,0.6-0.7,1.6-0.2,2.3c4.7,6.8,10.5,12.6,17.2,17.2c0.7,0.5,1.7,0.4,2.3-0.2l10.4-10.4c0.6,0.3,1.2,0.7,1.8,1l1.3-3.3
	c-0.8-0.4-1.7-0.9-2.5-1.4c-0.7-0.4-1.6-0.3-2.2,0.3l-10.3,10.3c-5.5-4-10.3-8.8-14.3-14.3l10.3-10.3c0.6-0.6,0.7-1.5,0.3-2.2
	c-2.5-4.2-4.4-8.7-5.5-13.4c-0.2-0.8-0.9-1.4-1.7-1.4h-14.5c-0.5-3.3-0.8-6.7-0.8-10.1c0-3.4,0.3-6.8,0.8-10.1h14.5
	c0.8,0,1.5-0.6,1.7-1.4c1.2-4.7,3-9.2,5.5-13.4c0.4-0.7,0.3-1.6-0.3-2.2l-10.3-10.3c4-5.5,8.8-10.3,14.3-14.3l10.3,10.3
	c0.6,0.6,1.5,0.7,2.2,0.3c4.2-2.5,8.7-4.4,13.4-5.5c0.8-0.2,1.4-0.9,1.4-1.7v-14.5c6.6-1.1,13.6-1.1,20.2,0v14.5
	c0,0.8,0.6,1.5,1.4,1.7c4.7,1.2,9.2,3,13.4,5.5c0.7,0.4,1.6,0.3,2.2-0.3l10.3-10.3c5.5,4,10.3,8.8,14.3,14.3l-10.3,10.3
	c-0.6,0.6-0.7,1.5-0.3,2.2c2.5,4.2,4.4,8.7,5.5,13.4c0.2,0.8,0.9,1.4,1.7,1.4h14.5c0.5,3.3,0.8,6.7,0.8,10.1c0,3.4-0.3,6.8-0.8,10.1
	h-14.5c-0.8,0-1.5,0.6-1.7,1.4c-1.2,4.7-3,9.2-5.5,13.4c-0.4,0.7-0.3,1.6,0.3,2.2l10.3,10.3c-4,5.5-8.8,10.3-14.3,14.3l-10.3-10.3
	c-0.6-0.6-1.5-0.7-2.2-0.3c-4.2,2.5-8.7,4.4-13.4,5.5c-0.8,0.2-1.4,0.9-1.4,1.7v14.5c-6.6,1.1-13.6,1.1-20.2,0v-14.5
	c0-0.8-0.6-1.5-1.4-1.7c-1.1-0.3-2.2-0.6-3.2-0.9l-1.3,3.3c0.8,0.3,1.6,0.5,2.4,0.7v14.7c0,0.9,0.6,1.6,1.5,1.8
	c4,0.7,8.1,1.1,12.2,1.1s8.2-0.4,12.2-1.1c0.8-0.2,1.5-0.9,1.5-1.8v-14.7c4.1-1.1,8.1-2.8,11.8-4.9l10.4,10.4
	c0.6,0.6,1.6,0.7,2.3,0.2c6.8-4.7,12.6-10.5,17.2-17.2c0.5-0.7,0.4-1.7-0.2-2.3L340.1,308c2.1-3.7,3.8-7.7,4.9-11.8h14.7
	c0.9,0,1.6-0.6,1.8-1.5c0.7-4,1.1-8.1,1.1-12.2S362.2,274.3,361.5,270.3z"/>
<path class="st1" d="M295.6,245.9c-19.9,0-36.2,16.2-36.2,36.2c0,13.4,7.3,25.1,18.1,31.3l1.3-3.3c-9.5-5.7-15.9-16.1-15.9-28
	c0-18,14.6-32.6,32.6-32.6s32.6,14.6,32.6,32.6s-14.6,32.6-32.6,32.6c-3.2,0-6.2-0.5-9.1-1.3l-1.3,3.3c3.3,1,6.8,1.5,10.4,1.5
	c19.9,0,36.2-16.2,36.2-36.2C331.7,262.1,315.5,245.9,295.6,245.9z"/>
<path class="st0" d="M309.4,86.5h-91.7V57.4c0-3.9-3.2-7.1-7.1-7.1H79.2c-3.9,0-7.1,3.2-7.1,7.1V285c0,3.9,3.2,7.1,7.1,7.1h6.2
	l10.3-14.2h-9.4V64.5h117.1v29.2v184.3h-84.7l-10.3,14.2h62.5v24.2c0,3.9,3.2,7.1,7.1,7.1h44.6c3.9,0,7.1-3.2,7.1-7.1
	s-3.2-7.1-7.1-7.1h-37.5v-15.8h25.4c3.9,0,7.1-3.2,7.1-7.1V285V100.7h84.6v97.8c0,3.9,3.2,7.1,7.1,7.1c3.9,0,7.1-3.2,7.1-7.1V93.6
	C316.5,89.7,313.3,86.5,309.4,86.5z"/>
</svg>
