<?xml version="1.0" encoding="utf-8"?>
<!-- Generator: Adobe Illustrator 22.0.1, SVG Export Plug-In . SVG Version: 6.00 Build 0)  -->
<svg version="1.1" id="레이어_1" xmlns="http://www.w3.org/2000/svg" xmlns:xlink="http://www.w3.org/1999/xlink" x="0px"
	 y="0px" viewBox="0 0 400 400" style="enable-background:new 0 0 400 400;" xml:space="preserve">
<style type="text/css">
	.st0{fill:#D9D9D9;}
	.st1{fill:#E1361F;}
	.st2{fill:#727171;}
</style>
<path class="st0" d="M310.9,331c-2.1,0-4.2-0.8-5.8-2.5c-8.5-8.9-4.7-19.2-0.1-24c6.9-7.6,5.5-17.5,5.2-18.9
	c-9.4-34.1-50.1-46.4-50.5-46.6c-0.2-0.1-0.5-0.2-0.7-0.2c-23.4-9.3-129.5-16.2-168.4-18c-0.2,0-0.3,0-0.5,0
	c-22.2-2.4-30.3,2.3-31.7,4.4c-0.1,0.2-0.2,0.5-0.3,0.7c-11.1,22.7,30.3,45.4,34.7,47.7c32.6,11.6,37.3,29.6,37.7,31.6l-15.6,3.3
	c0,0,0,0.1,0.1,0.3c0-0.1-3.7-11.7-28-20.3c-0.3-0.1-0.6-0.2-0.9-0.4c-0.6-0.3-14.7-7.3-27-18.7c-22.5-20.7-21-38.6-15.5-50.1
	c1.8-4.8,10.2-18.5,48.1-14.5c8.5,0.4,141.9,7.1,172.9,19c5,1.5,50,16.3,61.2,57.9c0,0.1,0.1,0.2,0.1,0.4c0.2,0.8,4,19.1-9.1,33.4
	c0,0,0,0,0,0c0,0,0,0,0,0c0,0,0,0,0,0c-0.3,0.4-0.5,0.9-0.5,1.1l0,0c0,0,0.1,0.3,0.7,0.9c3,3.2,2.9,8.3-0.3,11.3
	C314.9,330.3,312.9,331,310.9,331z M58.4,225.2L58.4,225.2L58.4,225.2z M58.7,224.4C58.7,224.4,58.7,224.4,58.7,224.4
	C58.7,224.4,58.7,224.4,58.7,224.4z M58.7,224.4C58.7,224.4,58.7,224.4,58.7,224.4C58.7,224.4,58.7,224.4,58.7,224.4z M58.7,224.3
	C58.7,224.4,58.7,224.4,58.7,224.3C58.7,224.4,58.7,224.4,58.7,224.3z M58.7,224.3C58.7,224.3,58.7,224.3,58.7,224.3
	C58.7,224.3,58.7,224.3,58.7,224.3z"/>
<path class="st1" d="M336.7,236.8c-1.2,0-2.4-0.5-3.3-1.4c-6.8-7.2-3.8-15.4-0.1-19.2c8.8-9.5,6.1-22.1,6.1-22.2
	c-0.5-2.4,1-4.8,3.4-5.4c2.4-0.5,4.8,1,5.4,3.4c0.2,0.7,3.6,17.3-8.3,30.3c0,0-0.1,0.1-0.1,0.1c-1.1,1.2-2.7,3.8,0.2,6.8
	c1.7,1.8,1.6,4.7-0.2,6.4C338.9,236.4,337.8,236.8,336.7,236.8z M336.5,219.3L336.5,219.3L336.5,219.3z"/>
<path class="st1" d="M77.2,157.8c-1.4,0-2.8-0.6-3.6-1.9c-1.1-1.5-10.7-15.3-6-26.4c2.5-6,8.4-9.7,17.4-11c2.5-0.4,4.7,1.3,5.1,3.8
	c0.4,2.5-1.3,4.7-3.8,5.1c-5.7,0.8-9.2,2.7-10.4,5.6c-2.3,5.5,3,14.8,5,17.6c1.5,2,1,4.8-1,6.3C79.1,157.5,78.2,157.8,77.2,157.8z"
	/>
<path class="st0" d="M358.1,196.8c-2.1,0-4.2-0.8-5.8-2.5c-8.5-8.9-4.7-19.2-0.1-24c7-7.6,5.5-17.5,5.2-18.9
	c-9.4-34.3-50.1-46.4-50.5-46.6c-0.2-0.1-0.5-0.2-0.7-0.2c-23.4-9.3-129.5-16.2-168.4-18c-0.2,0-0.3,0-0.5,0
	c-22.2-2.4-30.3,2.3-31.7,4.4c-0.1,0.3-0.2,0.5-0.3,0.8c-6.9,13.8,20.4,38,35.3,47.9c36.6,15.6,38.2,29.3,37.1,34.5
	c-0.9,4.3-5.1,7.1-9.4,6.3c-3.8-0.8-6.5-4.1-6.4-7.9c-0.5-1.3-4.5-8.5-28.2-18.5c-0.4-0.2-0.9-0.4-1.3-0.7
	c-5.8-3.8-56.2-38-41.7-68.4c1.8-4.8,10.3-18.5,48.1-14.5c8.5,0.4,141.9,7.1,172.9,19c5,1.5,50,16.3,61.2,57.9
	c0,0.1,0.1,0.2,0.1,0.4c0.2,0.8,4,19.1-9.1,33.4c0,0,0,0,0,0c0,0,0,0,0,0c0,0,0,0,0,0c-0.3,0.4-0.5,0.9-0.5,1.1l0,0
	c0,0,0.1,0.3,0.7,0.9c3,3.2,2.9,8.3-0.3,11.3C362.1,196.1,360.1,196.8,358.1,196.8z M105.6,90.9L105.6,90.9L105.6,90.9z M105.9,90.2
	C105.9,90.2,105.9,90.2,105.9,90.2C105.9,90.2,105.9,90.2,105.9,90.2z M105.9,90.2C105.9,90.2,105.9,90.2,105.9,90.2
	C105.9,90.2,105.9,90.2,105.9,90.2z M105.9,90.1C105.9,90.2,105.9,90.2,105.9,90.1C105.9,90.2,105.9,90.2,105.9,90.1z M105.9,90.1
	C105.9,90.1,105.9,90.1,105.9,90.1C105.9,90.1,105.9,90.1,105.9,90.1z M105.9,90.1C105.9,90.1,105.9,90.1,105.9,90.1
	C105.9,90.1,105.9,90.1,105.9,90.1z"/>
<path class="st1" d="M337.2,170.5c-1.3,0-2.7-0.6-3.6-1.7c-35.3-45.3-207.3-49.2-209-49.3c-2.5,0-4.5-2.1-4.4-4.6
	c0-2.5,2.1-4.4,4.5-4.4c0,0,0.1,0,0.1,0c7.3,0.1,178.1,4.1,216,52.7c1.5,2,1.2,4.8-0.8,6.3C339.1,170.2,338.1,170.5,337.2,170.5z"/>
<path class="st1" d="M58.2,204.5c-1.7,0-3.3-1-4.1-2.6c-0.3-0.8-8.3-18.7-0.3-30.6c4.5-6.7,12.7-9.9,24.5-9.4c2,0,36.4,0.1,63.9,3.1
	c2.5,0.3,4.3,2.5,4,5c-0.3,2.5-2.5,4.3-5,4c-27.6-3.1-62.5-3.1-63-3.1h0c-0.1,0-0.1,0-0.2,0c-8.5-0.3-14.1,1.5-16.8,5.5
	c-5.1,7.6,1,21.7,1.1,21.9c1,2.3,0,4.9-2.2,6C59.5,204.4,58.9,204.5,58.2,204.5z"/>
<path class="st1" d="M324.5,258.5C324.5,258.5,324.5,258.5,324.5,258.5c-2.6,0-4.5-2.1-4.5-4.6c0.4-23.9-11.6-36.8-11.7-36.9
	c-0.2-0.2-0.3-0.4-0.5-0.6c-25.9-38.6-116.8-38.7-117.8-38.6c0,0,0,0,0,0c-2.5,0-4.5-2-4.5-4.5c0-2.5,2-4.5,4.5-4.5
	c3.9,0,96.3,0,125.1,42.4c2.1,2.4,14.3,17.2,13.9,42.9C329,256.6,327,258.5,324.5,258.5z"/>
<path class="st1" d="M130.6,266.3c-2,0-3.8-1.3-4.3-3.3c-4.7-16.3-17.7-18.7-17.8-18.7c0,0-0.1,0-0.1,0c-19.5-3.9-29.8-14-30.2-14.4
	c-1.8-1.8-1.8-4.6,0-6.4c1.8-1.8,4.6-1.8,6.4,0c0.1,0.1,8.9,8.6,25.5,11.9c1.6,0.3,18.8,3.9,24.9,25.1c0.7,2.4-0.7,4.9-3.1,5.6
	C131.5,266.2,131.1,266.3,130.6,266.3z"/>
</svg>
