<?xml version="1.0" encoding="utf-8"?>
<!-- Generator: Adobe Illustrator 22.0.1, SVG Export Plug-In . SVG Version: 6.00 Build 0)  -->
<svg version="1.1" id="레이어_1" xmlns="http://www.w3.org/2000/svg" xmlns:xlink="http://www.w3.org/1999/xlink" x="0px"
	 y="0px" viewBox="0 0 400 400" style="enable-background:new 0 0 400 400;" xml:space="preserve">
<style type="text/css">
	.st0{fill:#D9D9D9;}
	.st1{fill:#E1361F;}
	.st2{fill:#727171;}
</style>
<path class="st0" d="M347.6,352.1h-297c-11,0-20.8-5.7-26.2-15.3c-5.4-9.6-5.2-20.9,0.5-30.3L173.4,62.3c5.5-9,15.1-14.4,25.7-14.4
	s20.2,5.4,25.7,14.4l148.5,244.2c5.7,9.4,5.9,20.7,0.5,30.3S358.6,352.1,347.6,352.1z M187.1,70.6L38.6,314.8
	c-2.7,4.4-2.8,9.7-0.2,14.2c2.5,4.5,7.1,7.2,12.2,7.2h297c5.1,0,9.7-2.7,12.2-7.2s2.4-9.8-0.2-14.2L211.1,70.6
	c-2.6-4.3-7-6.7-12-6.7S189.7,66.3,187.1,70.6L187.1,70.6z"/>
<path class="st1" d="M199.9,270.6L199.9,270.6c-5.6,0-10.2-4.6-10.2-10.2V135.3c0-5.6,4.6-10.2,10.2-10.2h0
	c5.6,0,10.2,4.6,10.2,10.2v125.1C210,266.1,205.5,270.6,199.9,270.6z"/>
<path class="st1" d="M199.9,311.3L199.9,311.3c-5.6,0-10.2-4.6-10.2-10.2v0c0-5.6,4.6-10.2,10.2-10.2h0c5.6,0,10.2,4.6,10.2,10.2v0
	C210,306.7,205.5,311.3,199.9,311.3z"/>
</svg>
