<?xml version="1.0" encoding="utf-8"?>
<!-- Generator: Adobe Illustrator 22.0.1, SVG Export Plug-In . SVG Version: 6.00 Build 0)  -->
<svg version="1.1" id="레이어_1" xmlns="http://www.w3.org/2000/svg" xmlns:xlink="http://www.w3.org/1999/xlink" x="0px"
	 y="0px" viewBox="0 0 400 400" style="enable-background:new 0 0 400 400;" xml:space="preserve">
<style type="text/css">
	.st0{fill:#D9D9D9;}
	.st1{fill:#E1361F;}
	.st2{fill:#727171;}
</style>
<path class="st0" d="M323.4,322.2h-33c-4.4,0-8-3.6-8-8s3.6-8,8-8h25v-248h-153v11.4c0,4.4-3.6,8-8,8s-8-3.6-8-8V50.2
	c0-4.4,3.6-8,8-8h169c4.4,0,8,3.6,8,8v264C331.4,318.7,327.8,322.2,323.4,322.2z"/>
<path class="st1" d="M178.5,290.4c-4.4,0-8-3.6-8-8s3.6-8,8-8c4.4,0,8,3.6,8,8S183,290.4,178.5,290.4z"/>
<path class="st0" d="M277.9,156.1c0-0.1,0-0.1,0-0.2c0-0.3-0.1-0.7-0.2-1c0,0,0,0,0,0c-0.1-0.3-0.2-0.6-0.3-0.9c0-0.1,0-0.1-0.1-0.2
	c-0.1-0.3-0.3-0.6-0.4-0.9c0-0.1-0.1-0.1-0.1-0.2c-0.2-0.3-0.4-0.6-0.6-0.8l-45.5-56.5c-0.2-0.3-0.5-0.6-0.8-0.8
	c-0.1-0.1-0.2-0.1-0.2-0.2c-0.2-0.2-0.5-0.4-0.7-0.6c-0.1,0-0.1-0.1-0.2-0.1c-0.3-0.2-0.6-0.4-1-0.5c-0.1,0-0.2-0.1-0.2-0.1
	c-0.3-0.1-0.6-0.2-0.8-0.3c-0.1,0-0.2-0.1-0.3-0.1c-0.4-0.1-0.7-0.2-1.1-0.2c0,0,0,0,0,0c-0.3,0-0.6,0-0.9,0H84c-4.4,0-8,3.6-8,8
	v249.3c0,4.4,3.6,8,8,8h17.9l11.8-16H92V108.5h124.8l2.3,49.6c0.2,4.3,3.7,7.6,8,7.6c0,0,0.1,0,0.1,0l34.7-0.6v176.6H139.8l-11.8,16
	H270c4.4,0,8-3.6,8-8V157C278,156.7,277.9,156.4,277.9,156.1z M234.7,149.6l-1.2-25l19.9,24.7L234.7,149.6z"/>
<path class="st1" d="M178.5,262.4c-4.4,0-8-3.6-8-8v-87c0-4.4,3.6-8,8-8s8,3.6,8,8v87C186.5,258.8,183,262.4,178.5,262.4z"/>
</svg>
