<?xml version="1.0" encoding="utf-8"?>
<!-- Generator: Adobe Illustrator 22.0.1, SVG Export Plug-In . SVG Version: 6.00 Build 0)  -->
<svg version="1.1" id="레이어_1" xmlns="http://www.w3.org/2000/svg" xmlns:xlink="http://www.w3.org/1999/xlink" x="0px"
	 y="0px" viewBox="0 0 400 400" style="enable-background:new 0 0 400 400;" xml:space="preserve">
<style type="text/css">
	.st0{fill:#D9D9D9;}
	.st1{fill:#E1361F;}
	.st2{fill:#727171;}
</style>
<path class="st0" d="M309.4,159.7H109.1c-4.4,0-8-3.6-8-8s3.6-8,8-8h200.3c4.4,0,8,3.6,8,8S313.8,159.7,309.4,159.7z"/>
<path class="st0" d="M224.9,223.8H107.7c-3.7,0-6.7-3.6-6.7-8s3-8,6.7-8h117.1c3.7,0,6.7,3.6,6.7,8S228.6,223.8,224.9,223.8z"/>
<path class="st0" d="M286.5,288.7H109.1c-4.4,0-8-3.6-8-8s3.6-8,8-8h177.4c4.4,0,8,3.6,8,8S290.9,288.7,286.5,288.7z"/>
<circle class="st1" cx="246.9" cy="215.8" r="8"/>
</svg>
