<?xml version="1.0" encoding="utf-8"?>
<!-- Generator: Adobe Illustrator 22.0.1, SVG Export Plug-In . SVG Version: 6.00 Build 0)  -->
<svg version="1.1" id="레이어_1" xmlns="http://www.w3.org/2000/svg" xmlns:xlink="http://www.w3.org/1999/xlink" x="0px"
	 y="0px" viewBox="0 0 400 400" style="enable-background:new 0 0 400 400;" xml:space="preserve">
<style type="text/css">
	.st0{fill:#D9D9D9;}
	.st1{fill:#E1361F;}
	.st2{fill:#727171;}
</style>
<path class="st1" d="M292.9,251h-17.3l-11.7,16h29c4.4,0,8-3.6,8-8C300.9,254.6,297.3,251,292.9,251z"/>
<path class="st0" d="M249.6,251h-45.1c-4.4,0-8,3.6-8,8v46.2L91.4,201l105.1-106v47c0,4.4,3.6,8,8,8h88.4c4.4,0,8-3.6,8-8
	s-3.6-8-8-8h-80.4V75.6c0-3.2-2-6.2-5-7.4c-3-1.2-6.4-0.5-8.7,1.8L74.4,195.4c-1.5,1.5-2.3,3.5-2.3,5.7c0,2.1,0.9,4.2,2.4,5.6
	l124.4,123.3c1.5,1.5,3.6,2.3,5.6,2.3c1,0,2.1-0.2,3.1-0.6c3-1.2,4.9-4.2,4.9-7.4V267h25.4L249.6,251z"/>
</svg>
