<?xml version="1.0" encoding="utf-8"?>
<!-- Generator: Adobe Illustrator 22.0.1, SVG Export Plug-In . SVG Version: 6.00 Build 0)  -->
<svg version="1.1" id="레이어_1" xmlns="http://www.w3.org/2000/svg" xmlns:xlink="http://www.w3.org/1999/xlink" x="0px"
	 y="0px" viewBox="0 0 400 400" style="enable-background:new 0 0 400 400;" xml:space="preserve">
<style type="text/css">
	.st0{fill:#D9D9D9;}
	.st1{fill:#E1361F;}
	.st2{fill:#727171;}
</style>
<path class="st0" d="M199,198.5c-43.8,0-79.5-35.7-79.5-79.5s35.7-79.5,79.5-79.5s79.5,35.7,79.5,79.5S242.9,198.5,199,198.5z
	 M199,55.5c-35,0-63.5,28.5-63.5,63.5s28.5,63.5,63.5,63.5s63.5-28.5,63.5-63.5S234,55.5,199,55.5z"/>
<path class="st0" d="M273.2,191.6c-2.9-1.6-6.6-1.2-9.1,1c-18,15.8-41.1,24.6-65,24.6s-47.1-8.7-65-24.6c-2.5-2.2-6.1-2.6-9.1-1
	C63,225.1,24.5,289.6,24.5,360c0,4.4,3.6,8,8,8h28.6l11.7-16H40.7c2.7-59.5,35.4-113.6,87.1-143.6c20.2,16.1,45.3,24.9,71.2,24.9
	s51-8.8,71.2-24.9c51.7,30,84.4,84.1,87.1,143.6H98.9l-11.7,16h278.4c4.4,0,8-3.6,8-8C373.5,289.6,335.1,225.1,273.2,191.6z"/>
<path class="st1" d="M331,336.9c-2.2,0-4.1-1.6-4.4-3.8c-9.6-61.8-57.5-92.9-58-93.2c-2.1-1.3-2.7-4.1-1.4-6.2
	c1.3-2.1,4.1-2.7,6.2-1.4c2.1,1.3,51.8,33.5,62,99.4c0.4,2.5-1.3,4.8-3.8,5.1C331.5,336.9,331.2,336.9,331,336.9z"/>
</svg>
