<?xml version="1.0" encoding="utf-8"?>
<!-- Generator: Adobe Illustrator 22.0.1, SVG Export Plug-In . SVG Version: 6.00 Build 0)  -->
<svg version="1.1" id="레이어_1" xmlns="http://www.w3.org/2000/svg" xmlns:xlink="http://www.w3.org/1999/xlink" x="0px"
	 y="0px" viewBox="0 0 400 400" style="enable-background:new 0 0 400 400;" xml:space="preserve">
<style type="text/css">
	.st0{fill:#D9D9D9;}
	.st1{fill:#E1361F;}
	.st2{fill:#727171;}
</style>
<path class="st2" d="M368.4,278.5c-0.2-1-1-1.6-2-1.6h-16.5c-1.3-4.7-3.1-9.1-5.5-13.3l11.7-11.7c0.7-0.7,0.8-1.8,0.2-2.6
	c-5.3-7.6-11.8-14.2-19.4-19.4c-0.8-0.6-1.9-0.5-2.6,0.2l-11.7,11.7c-4.2-2.4-8.7-4.2-13.3-5.5v-16.5c0-1-0.7-1.8-1.6-2
	c-9-1.6-18.5-1.6-27.5,0c-1,0.2-1.6,1-1.6,2v16.5c-4.7,1.3-9.1,3.1-13.3,5.5l-11.7-11.7c-0.7-0.7-1.8-0.8-2.6-0.2
	c-7.6,5.3-14.2,11.8-19.4,19.4c-0.6,0.8-0.5,1.9,0.2,2.6l11.7,11.7c-2.4,4.2-4.2,8.7-5.5,13.3h-16.5c-1,0-1.8,0.7-2,1.6
	c-0.8,4.5-1.2,9.1-1.2,13.7s0.4,9.2,1.2,13.7c0.2,1,1,1.6,2,1.6H238c1.3,4.7,3.1,9.1,5.5,13.3l-11.7,11.7c-0.7,0.7-0.8,1.8-0.2,2.6
	c5.3,7.6,11.8,14.2,19.4,19.4c0.8,0.6,1.9,0.5,2.6-0.2l11.7-11.7c0.7,0.4,1.3,0.7,2,1.1l1.5-3.7c-0.9-0.5-1.9-1-2.8-1.6
	c-0.8-0.5-1.8-0.4-2.5,0.3L252,350.3c-6.2-4.5-11.6-9.9-16.1-16.1l11.6-11.6c0.7-0.7,0.8-1.7,0.3-2.5c-2.9-4.7-5-9.8-6.3-15.1
	c-0.2-0.9-1-1.5-1.9-1.5h-16.4c-0.6-3.7-0.9-7.6-0.9-11.4s0.3-7.6,0.9-11.4h16.4c0.9,0,1.7-0.6,1.9-1.5c1.3-5.3,3.4-10.4,6.3-15.1
	c0.5-0.8,0.4-1.8-0.3-2.5l-11.6-11.6c4.5-6.2,9.9-11.6,16.1-16.1l11.6,11.6c0.7,0.7,1.7,0.8,2.5,0.3c4.7-2.9,9.8-5,15.1-6.3
	c0.9-0.2,1.5-1,1.5-1.9v-16.4c7.5-1.2,15.3-1.2,22.7,0v16.4c0,0.9,0.6,1.7,1.5,1.9c5.3,1.3,10.4,3.4,15.1,6.3
	c0.8,0.5,1.8,0.4,2.5-0.3l11.6-11.6c6.2,4.5,11.6,9.9,16.1,16.1l-11.6,11.6c-0.7,0.7-0.8,1.7-0.3,2.5c2.9,4.7,5,9.8,6.3,15.1
	c0.2,0.9,1,1.5,1.9,1.5h16.4c0.6,3.7,0.9,7.6,0.9,11.4s-0.3,7.6-0.9,11.4h-16.4c-0.9,0-1.7,0.6-1.9,1.5c-1.3,5.3-3.4,10.4-6.3,15.1
	c-0.5,0.8-0.4,1.8,0.3,2.5l11.6,11.6c-4.5,6.2-9.9,11.6-16.1,16.1l-11.6-11.6c-0.7-0.7-1.7-0.8-2.5-0.3c-4.7,2.9-9.8,5-15.1,6.3
	c-0.9,0.2-1.5,1-1.5,1.9V363c-7.5,1.2-15.3,1.2-22.7,0v-16.4c0-0.9-0.6-1.7-1.5-1.9c-1.2-0.3-2.4-0.6-3.6-1l-1.5,3.7
	c0.9,0.3,1.8,0.6,2.7,0.8v16.5c0,1,0.7,1.8,1.6,2c4.5,0.8,9.1,1.2,13.7,1.2c4.6,0,9.2-0.4,13.7-1.2c1-0.2,1.6-1,1.6-2v-16.5
	c4.7-1.3,9.1-3.1,13.3-5.5l11.7,11.7c0.7,0.7,1.8,0.8,2.6,0.2c7.6-5.3,14.2-11.8,19.4-19.4c0.6-0.8,0.5-1.9-0.2-2.6l-11.7-11.7
	c2.4-4.2,4.2-8.7,5.5-13.3h16.5c1,0,1.8-0.7,2-1.6c0.8-4.5,1.2-9.1,1.2-13.7S369.2,283,368.4,278.5z"/>
<path class="st1" d="M294.2,250.9c-22.5,0-40.7,18.3-40.7,40.7c0,15.1,8.2,28.2,20.4,35.3l1.5-3.8c-10.7-6.4-17.9-18.1-17.9-31.5
	c0-20.2,16.5-36.7,36.7-36.7c20.2,0,36.7,16.5,36.7,36.7c0,20.2-16.5,36.7-36.7,36.7c-3.6,0-7-0.5-10.2-1.5l-1.5,3.7
	c3.7,1.1,7.7,1.7,11.7,1.7c22.5,0,40.7-18.3,40.7-40.7C334.9,269.2,316.6,250.9,294.2,250.9z"/>
<path class="st0" d="M231.6,107h-90.1c-4.4,0-8-3.6-8-8s3.6-8,8-8h90.1c4.4,0,8,3.6,8,8S236,107,231.6,107z"/>
<path class="st1" d="M178.8,263.1c-23.3,0-42.2-18.9-42.2-42.2c0-23.3,18.9-42.2,42.2-42.2c23.3,0,42.2,18.9,42.2,42.2
	C221,244.2,202.1,263.1,178.8,263.1z M178.8,187.8c-18.3,0-33.2,14.9-33.2,33.2c0,18.3,14.9,33.2,33.2,33.2
	c18.3,0,33.2-14.9,33.2-33.2C212,202.7,197.1,187.8,178.8,187.8z"/>
<g>
	<path class="st0" d="M196.5,293H93.2l-11.7,16h115.1c4.4,0,8-3.6,8-8S200.9,293,196.5,293z"/>
	<path class="st0" d="M315.5,133H39c-4.4,0-8,3.6-8,8v160c0,4.4,3.6,8,8,8h16.4l11.7-16H47V149h260.5v56.5c0,4.4,3.6,8,8,8
		s8-3.6,8-8V141C323.5,136.6,319.9,133,315.5,133z"/>
</g>
</svg>
